<svg width="283" height="64" viewBox="0 0 283 64" fill="none" xmlns="http://www.w3.org/2000/svg"><path d="m141.04 16 c-11.04 0-19 7.2-19 18 s8.96 18 20 18 c6.67 0 12.55-2.64 16.19-7.09 l-7.65-4.42 c-2.02 2.21-5.09 3.5-8.54 3.5-4.79 0-8.86-2.5-10.37-6.5 h28.02 c.22-1.12.35-2.28.35-3.5 0-10.79-7.96-17.99-19-17.99 z m-9.46 14.5 c1.25-3.99 4.67-6.5 9.45-6.5 4.79 0 8.21 2.51 9.45 6.5 h-18.9 z" fill="#000"/><path d="m248.72 16 c-11.04 0-19 7.2-19 18 s8.96 18 20 18 c6.67 0 12.55-2.64 16.19-7.09 l-7.65-4.42 c-2.02 2.21-5.09 3.5-8.54 3.5-4.79 0-8.86-2.5-10.37-6.5 h28.02 c.22-1.12.35-2.28.35-3.5 0-10.79-7.96-17.99-19-17.99 z m-9.45 14.5 c1.25-3.99 4.67-6.5 9.45-6.5 4.79 0 8.21 2.51 9.45 6.5 h-18.9 z" fill="#000"/><path d="m200.24 34.4 c3.32 0 5.7-2.15 5.7-5.37 0-3.22-2.38-5.37-5.7-5.37-3.32 0-5.7 2.15-5.7 5.37 0 3.22 2.38 5.37 5.7 5.37 z m-15.32-7.54 h7.14 l5.25 13.07 h-7.14 l-1.12-2.95 h-6.12 l-1.12 2.95 h-7.14 l5.25-13.07 z m-6.36 6.95 h4.24 l-2.12-5.57-2.12 5.57 z" fill="#484848"/><path d="m236.36 27.17 h-6.47 c-1.22 0-2.15.93-2.15 2.15 v7.14 h8.62 v3.56 h-8.62 v8.62 c0 1.22.93 2.15 2.15 2.15 h6.47 c1.22 0 2.15-.93 2.15-2.15 v-8.62 h8.62 v-3.56 h-8.62 v-7.14 c0-1.22-.93-2.15-2.15-2.15 z" fill="#484848"/></svg>
